# xmcd
#
# Track frame offsets:
#	225
#	20253
#	33733
#	49685
#	68754
#	87121
#	106316
#	115558
#	138146
#	153651
#	173473
#	189746
#	211288
#
# Disc length: 3050 seconds
#
# Revision: 1
# Processed by: cddbd v1.5.1PL2 Copyright (c) Steve Scherf et al.
# Submitted via: audiograbber 1.83.01
#
DISCID=a30be70d
DTITLE=Grosaci - Nebeskej listek
DYEAR=1997
DGENRE=Country
TTITLE0=Nebeskej listek
TTITLE1=Co vis o mych vancich
TTITLE2=Mafie
TTITLE3=Laska s truckem
TTITLE4=Hej koci
TTITLE5=Tak si me vsimej
TTITLE6=Telefon
TTITLE7=Divka z Cheyenne
TTITLE8=Soumrak lasky
TTITLE9=Dovolena
TTITLE10=Vez kamenna
TTITLE11=Zar
TTITLE12=Bejt sam
EXTD=
EXTT0=
EXTT1=
EXTT2=
EXTT3=
EXTT4=
EXTT5=
EXTT6=
EXTT7=
EXTT8=
EXTT9=
EXTT10=
EXTT11=
EXTT12=
PLAYORDER=
